<?xml version="1.0" encoding="UTF-8" standalone="no"?>
<svg
   xmlns:dc="http://purl.org/dc/elements/1.1/"
   xmlns:cc="http://creativecommons.org/ns#"
   xmlns:rdf="http://www.w3.org/1999/02/22-rdf-syntax-ns#"
   xmlns:svg="http://www.w3.org/2000/svg"
   xmlns="http://www.w3.org/2000/svg"
   xmlns:sodipodi="http://sodipodi.sourceforge.net/DTD/sodipodi-0.dtd"
   xmlns:inkscape="http://www.inkscape.org/namespaces/inkscape"
   version="1.1"
   id="Layer_1"
   x="0px"
   y="0px"
   width="452"
   height="638"
   viewBox="0 0 452 638"
   enable-background="new 0 0 512 512"
   xml:space="preserve"
   inkscape:version="0.48.2 r9819"
   sodipodi:docname="HTML5_logo.svg"><metadata
   id="metadata23"><rdf:RDF><cc:Work
       rdf:about=""><dc:format>image/svg+xml</dc:format><dc:type
         rdf:resource="http://purl.org/dc/dcmitype/StillImage" /><dc:title></dc:title></cc:Work></rdf:RDF></metadata><defs
   id="defs21">
	

		
	
			
			
			
			
			
		
				
				
			</defs><sodipodi:namedview
   pagecolor="#ffffff"
   bordercolor="#666666"
   borderopacity="1"
   objecttolerance="10"
   gridtolerance="10"
   guidetolerance="10"
   inkscape:pageopacity="0"
   inkscape:pageshadow="2"
   inkscape:window-width="1920"
   inkscape:window-height="1028"
   id="namedview19"
   showgrid="false"
   inkscape:zoom="0.64950284"
   inkscape:cx="355.21442"
   inkscape:cy="145.70575"
   inkscape:window-x="-8"
   inkscape:window-y="-4"
   inkscape:window-maximized="1"
   inkscape:current-layer="Layer_1" />

<g
   id="g4060"><g
     id="g4047"><polygon
       style="fill:#e44d26"
       id="polygon9"
       points="437.367,100.62 404.321,470.819 255.778,512 107.644,470.877 74.633,100.62 "
       transform="matrix(1.2460922,0,0,1.2460922,-92.999599,7.9345704e-4)" /><polygon
       style="fill:#f16529"
       id="polygon11"
       points="256,480.523 376.03,447.246 404.27,130.894 256,130.894 "
       transform="matrix(1.2460922,0,0,1.2460922,-92.999599,7.9345704e-4)" /><g
       id="g13"
       transform="matrix(1.2460922,0,0,1.2460922,-92.999599,7.9345704e-4)">
				<polygon
   style="fill:#ebebeb"
   id="polygon15"
   points="191.76,221.716 256,221.716 256,176.305 255.843,176.305 142.132,176.305 143.219,188.488 154.38,313.627 256,313.627 256,268.217 195.91,268.217 " />
				<polygon
   style="fill:#ebebeb"
   id="polygon17"
   points="201.994,336.333 177.419,336.333 156.409,336.333 162.771,407.634 255.791,433.457 256,433.399 256,386.153 255.801,386.206 205.227,372.55 " />
			</g></g><g
     transform="matrix(1.2460922,0,0,1.2460922,-92.999599,7.9345704e-4)"
     id="g29">
				<polygon
   points="255.843,433.435 348.937,407.634 349.62,399.962 360.291,280.411 361.399,268.217 349.162,268.217 255.843,268.217 255.843,313.627 311.761,313.627 306.49,372.521 255.843,386.191 "
   id="polygon31"
   style="fill:#ffffff" />
				<polygon
   points="255.843,221.605 255.843,221.716 365.385,221.716 365.385,221.716 365.531,221.716 366.442,211.509 368.511,188.488 369.597,176.305 255.843,176.305 255.843,204.509 "
   id="polygon33"
   style="fill:#ffffff" />
			</g><g
     id="g4054"><polygon
       transform="matrix(1.2460922,0,0,1.2460922,447.0004,7.9345704e-4)"
       points="107.644,470.877 74.633,100.62 437.367,100.62 404.321,470.819 255.778,512 "
       id="polygon3057"
       style="fill:#2b8fc1;fill-opacity:1" /><polygon
       transform="matrix(1.2460922,0,0,1.2460922,447.0004,7.9345704e-4)"
       points="376.03,447.246 404.27,130.894 256,130.894 256,480.523 "
       id="polygon3059"
       style="fill:#4498c4;fill-opacity:1" /><path
       style="fill:#ffffff;fill-opacity:1;stroke:none;stroke-width:0.86495376000000002px;stroke-linecap:butt;stroke-linejoin:miter;stroke-opacity:1"
       d="M 766 225.78125 L 766 282.3125 L 877 282.3125 L 870.28125 317.25 L 766 317.25 L 766 373.84375 L 856.75 373.84375 L 845.09375 434.78125 L 766 460.46875 L 766 516.09375 L 895.375 475.71875 L 943.65625 242.65625 L 943.65625 242.59375 L 945.09375 226.46875 L 766 225.78125 z "
       id="path3255" /><path
       style="fill:#ebebeb;fill-opacity:1;stroke:none;stroke-width:0.86495376000000002px;stroke-linecap:butt;stroke-linejoin:miter;stroke-opacity:1"
       d="m 654,225.375 -11.5,56.9375 123.5,0 0,-56.53125 -112,-0.40625 z m 291.0937,1.09375 -1.4375,16.1875 3.3438,-16.1875 -1.9063,0 z M 634.59375,317.25 623.375,373.84375 l 142.625,0 0,-56.59375 -131.40625,0 z m -18.21875,90.5625 -13.3125,66.90625 136.5,49.625 26.4375,-8.25 0,-55.625 -14.125,4.59375 -82.2188,-30.28125 5.3125,-26.96875 -58.5937,0 z"
       id="path4028"
       inkscape:connector-curvature="0" /></g><text
     sodipodi:linespacing="100%"
     id="text4039"
     y="99.579987"
     x="650.45312"
     style="font-size:136px;font-style:normal;font-variant:normal;font-weight:bold;font-stretch:normal;text-align:start;line-height:100%;letter-spacing:0px;word-spacing:0px;writing-mode:lr-tb;text-anchor:start;fill:#000000;fill-opacity:1;stroke:none;font-family:Droid Sans;-inkscape-font-specification:Droid Sans Bold"
     xml:space="preserve"><tspan
       y="99.579987"
       x="650.45312"
       id="tspan4041"
       sodipodi:role="line">CSS</tspan></text>
<text
     sodipodi:linespacing="100%"
     id="text4043"
     y="94.744049"
     x="32.947895"
     style="font-size:120px;font-style:normal;font-variant:normal;font-weight:bold;font-stretch:normal;text-align:start;line-height:100%;letter-spacing:0.01px;word-spacing:0px;writing-mode:lr-tb;text-anchor:start;fill:#000000;fill-opacity:1;stroke:none;font-family:Droid Sans Japanese;-inkscape-font-specification:Droid Sans Japanese Bold"
     xml:space="preserve"><tspan
       y="94.744049"
       x="32.947895"
       id="tspan4045"
       sodipodi:role="line">HTML</tspan></text>
</g></svg>