<?xml version="1.0" encoding="UTF-8" standalone="no"?>
<!-- Created with Inkscape (http://www.inkscape.org/) -->

<svg
   xmlns:dc="http://purl.org/dc/elements/1.1/"
   xmlns:cc="http://creativecommons.org/ns#"
   xmlns:rdf="http://www.w3.org/1999/02/22-rdf-syntax-ns#"
   xmlns:svg="http://www.w3.org/2000/svg"
   xmlns="http://www.w3.org/2000/svg"
   xmlns:sodipodi="http://sodipodi.sourceforge.net/DTD/sodipodi-0.dtd"
   xmlns:inkscape="http://www.inkscape.org/namespaces/inkscape"
   id="svg2"
   version="1.1"
   inkscape:version="0.48.2 r9819"
   width="438"
   height="336"
   sodipodi:docname="PhoneGap.jpg">
  <metadata
     id="metadata8">
    <rdf:RDF>
      <cc:Work
         rdf:about="">
        <dc:format>image/svg+xml</dc:format>
        <dc:type
           rdf:resource="http://purl.org/dc/dcmitype/StillImage" />
        <dc:title></dc:title>
      </cc:Work>
    </rdf:RDF>
  </metadata>
  <defs
     id="defs6">
    <inkscape:path-effect
       effect="spiro"
       id="path-effect3871"
       is_visible="true" />
    <inkscape:path-effect
       effect="spiro"
       id="path-effect3090"
       is_visible="true" />
  </defs>
  <sodipodi:namedview
     pagecolor="#ffffff"
     bordercolor="#666666"
     borderopacity="1"
     objecttolerance="10"
     gridtolerance="10"
     guidetolerance="10"
     inkscape:pageopacity="0"
     inkscape:pageshadow="2"
     inkscape:window-width="1920"
     inkscape:window-height="1023"
     id="namedview4"
     showgrid="false"
     inkscape:zoom="1.2099609"
     inkscape:cx="118.61789"
     inkscape:cy="133.28428"
     inkscape:window-x="0"
     inkscape:window-y="26"
     inkscape:window-maximized="1"
     inkscape:current-layer="svg2" />
  <text
     xml:space="preserve"
     style="font-size:52.80686188px;font-style:normal;font-variant:normal;font-weight:bold;font-stretch:normal;text-align:start;line-height:100%;letter-spacing:0px;word-spacing:0px;writing-mode:lr-tb;text-anchor:start;fill:#000000;fill-opacity:1;stroke:none;font-family:TeX Gyre Heros;-inkscape-font-specification:TeX Gyre Heros Bold"
     x="78.178108"
     y="305.37729"
     id="text3882"
     sodipodi:linespacing="100%"><tspan
       sodipodi:role="line"
       id="tspan3884"
       x="78.178108"
       y="305.37729"
       style="font-style:normal;font-variant:normal;font-weight:bold;font-stretch:normal;font-family:TeX Gyre Heros;-inkscape-font-specification:TeX Gyre Heros Bold"><tspan
   style="font-style:normal;font-variant:normal;font-weight:normal;font-stretch:normal;font-family:TeX Gyre Adventor;-inkscape-font-specification:TeX Gyre Adventor"
   id="tspan3888">Phone</tspan>Gap</tspan></text>
  <g
     id="g3908"
     transform="translate(3.0045513,0)">
    <path
       inkscape:connector-curvature="0"
       id="path3088"
       d="m 203.8125,14.53125 c -1.85881,0.08291 -5.43674,1.333607 -8.34375,4.09375 -2.45701,2.332873 -4.52,5.705925 -4.5625,9.09375 -0.63295,50.414598 3.03794,128.21538 5.9375,182.65625 0.21359,4.01025 2.02585,7.90795 5.21875,10.34375 2.84319,2.16901 6.7723,3.05686 10.34375,2.875 24.27192,-1.23591 56.3323,-7.11406 81.40625,-12.8125 3.39009,-0.77045 6.70728,-2.9238 8.6875,-5.78125 2.417,-3.48773 3.00764,-8.13153 2.875,-12.40625 -1.51964,-48.97525 -8.1979,-105.575397 -8.65625,-152.0625 -0.0358,-3.636408 -2.1281,-7.204682 -4.5625,-9.90625 -2.3563,-2.614906 -5.61155,-4.860996 -9.09375,-5.375 -27.55978,-4.06807 -68.3173,-11.206411 -79.25,-10.71875 z m 10.84375,38.375 c 8.44883,-0.297 42.63921,1.897422 63.9375,4.375 2.69106,0.313043 5.21029,1.688693 7.03125,3.28125 1.8813,1.645335 3.4723,3.816567 3.5,6.03125 0.35422,28.312041 3.70063,65.11009 4.875,94.9375 0.10254,2.60343 -0.58443,5.53394 -2.25,7.5625 -1.60242,1.95165 -4.06763,3.06202 -6.6875,3.53125 -19.37723,3.47051 -44.71132,6.30979 -63.46875,7.0625 -2.76002,0.11076 -5.77152,-0.46027 -7.96875,-1.78125 -2.46748,-1.48348 -3.86618,-3.83889 -4.03125,-6.28125 -2.24078,-33.15614 -5.39539,-79.952246 -4.90625,-110.65625 0.0329,-2.063286 1.60121,-4.14171 3.5,-5.5625 2.24656,-1.68101 5.03227,-2.449503 6.46875,-2.5 z"
       style="fill:#131313;fill-opacity:1;stroke:none" />
    <g
       id="g3902">
      <path
         id="path3876"
         d="m 158.85232,35.861315 c -1.47951,0.06599 -4.32735,1.061478 -6.64117,3.2584 -1.95564,1.856838 -3.59767,4.541601 -3.63149,7.238123 -0.5038,40.127242 2.41803,102.052382 4.72592,145.384312 0.17,3.19194 1.61246,6.29429 4.15384,8.23305 2.26302,1.72641 5.39037,2.43309 8.23305,2.28834 19.31911,-0.98371 52.83741,-5.6624 72.79489,-10.19804 2.69832,-0.61324 5.33862,-2.32718 6.91477,-4.60156 1.9238,-2.77604 2.39392,-6.47225 2.28834,-9.87469 -1.20955,-38.9816 -6.52507,-84.032196 -6.8899,-121.033368 -0.0285,-2.89438 -1.69385,-5.734529 -3.63149,-7.884829 -1.87549,-2.081321 -4.46649,-3.869085 -7.23813,-4.278204 -21.93606,-3.237959 -62.3768,-8.919685 -71.07863,-8.531534 z m 8.63103,30.544385 c 6.7248,-0.236395 40.47745,2.094649 57.42971,4.066664 2.14194,0.249165 4.14711,1.344107 5.59649,2.611694 1.49741,1.309596 2.76376,3.037777 2.78581,4.800543 0.28194,22.534819 2.9455,50.947439 3.88023,74.688409 0.0816,2.07219 -0.46517,4.40472 -1.79088,6.01934 -1.27543,1.5534 -3.23761,2.4372 -5.32288,2.81068 -15.42321,2.76233 -44.17215,4.43783 -59.10204,5.03695 -2.19682,0.0882 -4.59381,-0.36635 -6.34268,-1.41778 -1.96398,-1.18077 -3.07727,-3.05554 -3.20865,-4.99953 -1.78354,-26.39046 -2.24902,-62.760969 -1.85969,-87.199664 0.0262,-1.642262 1.27448,-3.296573 2.78581,-4.427443 1.78814,-1.337992 4.00541,-1.94967 5.14877,-1.989863 z"
         style="opacity:0.65;fill:#131313;fill-opacity:1;stroke:none"
         inkscape:connector-curvature="0"
         sodipodi:nodetypes="sscsssssscsssssssssscsscss" />
      <path
         sodipodi:nodetypes="sscsssssscsssssssssscsscss"
         inkscape:connector-curvature="0"
         style="opacity:0.4;fill:#131313;fill-opacity:1;stroke:none"
         d="m 122.97053,61.541843 c -1.02285,0.04562 -2.99169,0.733844 -4.59133,2.252671 -1.35202,1.283712 -2.48723,3.139804 -2.51061,5.004026 -0.3483,27.741684 1.67169,70.55319 3.26723,100.51041 0.11753,2.20673 1.11476,4.35152 2.87173,5.69187 1.56453,1.19354 3.72659,1.6821 5.69186,1.58202 13.35613,-0.68008 36.52877,-3.91465 50.32623,-7.05034 1.86547,-0.42396 3.69082,-1.60888 4.78048,-3.18125 1.33001,-1.9192 1.65502,-4.47455 1.58203,-6.8268 -0.83622,-26.94965 -4.51106,-58.09506 -4.76329,-83.675565 -0.0197,-2.001009 -1.17103,-3.964526 -2.5106,-5.451121 -1.29661,-1.438906 -3.08788,-2.674864 -5.00403,-2.957705 -15.16534,-2.238541 -43.12376,-6.166562 -49.1397,-5.898216 z m 5.96699,21.116644 c 4.64915,-0.163431 27.9838,1.44812 39.70362,2.81146 1.48082,0.172258 2.86709,0.929238 3.8691,1.805576 1.03523,0.90538 1.9107,2.100145 1.92595,3.318821 0.19491,15.579286 2.03635,35.222146 2.68257,51.635296 0.0564,1.4326 -0.32159,3.04518 -1.23811,4.16143 -0.88176,1.07394 -2.2383,1.68494 -3.67994,1.94315 -10.66272,1.90971 -30.5381,3.06806 -40.85977,3.48226 -1.51876,0.061 -3.1759,-0.25328 -4.38497,-0.98017 -1.35779,-0.81632 -2.12745,-2.11243 -2.21827,-3.45639 -1.23305,-18.24486 -1.55486,-43.38936 -1.2857,-60.284874 0.0181,-1.135367 0.88111,-2.279063 1.92596,-3.060881 1.23621,-0.925012 2.76911,-1.347891 3.55956,-1.375678 z"
         id="path3878" />
      <path
         id="path3880"
         d="m 102.1614,87.495542 c -0.52576,0.02345 -1.53779,0.377211 -2.36003,1.157919 -0.69497,0.659854 -1.27849,1.613923 -1.29051,2.572171 -0.17904,14.259788 0.85928,36.265778 1.67942,51.664388 0.0604,1.13431 0.57301,2.23678 1.47613,2.92575 0.8042,0.6135 1.91554,0.86463 2.92573,0.81319 6.86532,-0.34958 18.77653,-2.01221 25.86871,-3.62402 0.95889,-0.21792 1.89715,-0.82699 2.45726,-1.63523 0.68365,-0.98651 0.85071,-2.30001 0.8132,-3.50911 -0.42984,-13.85267 -2.31878,-29.86205 -2.44843,-43.010947 -0.0105,-1.028559 -0.60194,-2.037847 -1.29051,-2.801987 -0.66647,-0.739627 -1.58722,-1.374935 -2.57217,-1.52032 -7.79529,-1.150656 -22.16648,-3.169739 -25.2588,-3.031804 z m 3.06716,10.854388 c 2.38975,-0.0841 14.38423,0.74436 20.40847,1.44514 0.76116,0.0886 1.47373,0.47765 1.98879,0.92811 0.53213,0.46538 0.98214,1.07952 0.98998,1.70594 0.10014,8.00807 1.04672,18.1049 1.37889,26.54159 0.029,0.73639 -0.1653,1.56529 -0.63641,2.13906 -0.45324,0.55203 -1.15053,0.86609 -1.89157,0.99882 -5.48085,0.98164 -15.6972,1.57705 -21.00275,1.78996 -0.78068,0.0314 -1.63248,-0.13019 -2.25396,-0.50383 -0.69793,-0.41961 -1.09356,-1.08584 -1.14024,-1.77665 -0.63382,-9.37824 -0.79923,-22.30302 -0.66087,-30.98766 0.009,-0.5836 0.4529,-1.17148 0.98997,-1.57336 0.63545,-0.47548 1.42338,-0.69285 1.8297,-0.70712 z"
         style="opacity:0.2;fill:#131313;fill-opacity:1;stroke:none"
         inkscape:connector-curvature="0"
         sodipodi:nodetypes="sscsssssscsssssssssscsscss" />
      <path
         sodipodi:type="arc"
         style="opacity:0.2;fill:#131313;fill-opacity:1;fill-rule:nonzero;stroke:none"
         id="path3898"
         sodipodi:cx="281.82913"
         sodipodi:cy="222.4794"
         sodipodi:rx="87.222389"
         sodipodi:ry="39.593414"
         d="m 369.05152,222.4794 c 0,21.86684 -39.05079,39.59341 -87.22239,39.59341 -48.17159,0 -87.22239,-17.72657 -87.22239,-39.59341 0,-21.86684 39.0508,-39.59341 87.22239,-39.59341 48.1716,0 87.22239,17.72657 87.22239,39.59341 z"
         transform="matrix(1.0904523,0.16022133,0,1.0396971,-81.302726,-67.236324)" />
    </g>
  </g>
</svg>
